<svg width="25" height="26" viewBox="0 0 25 26" fill="none" xmlns="http://www.w3.org/2000/svg">
<g clip-path="url(#clip0_641_21226)">
<path d="M24.6595 13.2315C24.6595 12.1302 23.7634 11.2342 22.662 11.2342H3.68208V4.74222C3.68208 3.99489 4.29006 3.38692 5.03738 3.38692H5.3922C5.75937 3.38692 6.10578 3.53617 6.35734 3.79092L6.29719 3.85107C5.28702 4.86124 5.28702 6.50482 6.29719 7.5151L6.63988 7.85778C6.79094 8.00884 6.98895 8.08443 7.18706 8.08443C7.38518 8.08443 7.58308 8.00895 7.73425 7.85778L11.1177 4.47437C11.4198 4.17225 11.4198 3.68223 11.1177 3.3801L10.775 3.03742C10.2857 2.54804 9.63504 2.2786 8.94307 2.2786C8.41408 2.2786 7.90959 2.43647 7.48259 2.72923C6.94211 2.16884 6.19042 1.83936 5.39231 1.83936H5.03749C3.43681 1.83936 2.13452 3.14153 2.13452 4.74232V11.2441C1.12339 11.3415 0.330078 12.1956 0.330078 13.2316C0.330078 14.0789 0.861297 14.8029 1.60756 15.0926V17.6429C1.60756 19.8922 3.20856 21.7747 5.33088 22.2109L4.66702 22.8748C4.3649 23.1769 4.3649 23.6668 4.66702 23.9689C4.81808 24.12 5.01609 24.1956 5.21421 24.1956C5.41232 24.1956 5.61023 24.1201 5.76139 23.9689L7.4251 22.3061H17.564L19.2283 23.9689C19.3792 24.12 19.5772 24.1956 19.7755 24.1956C19.9735 24.1956 20.1715 24.1201 20.3227 23.9689C20.6248 23.6668 20.6248 23.1769 20.3227 22.8748L19.6588 22.2109C21.7813 21.7747 23.3822 19.8923 23.3822 17.6429V15.0926C24.1282 14.8027 24.6595 14.0789 24.6595 13.2315ZM8.94307 3.82605C9.12255 3.82605 9.29501 3.87098 9.44767 3.95561L7.21602 6.18726C6.99725 5.79071 7.0558 5.281 7.39167 4.94523L8.20543 4.13148C8.40248 3.93453 8.66447 3.82605 8.94307 3.82605ZM2.32753 12.7818H22.662C22.9101 12.7818 23.1119 12.9836 23.1119 13.2317C23.1119 13.4797 22.9101 13.6815 22.662 13.6815H2.32753C2.07948 13.6815 1.87775 13.4797 1.87775 13.2317C1.87775 12.9836 2.07948 12.7818 2.32753 12.7818ZM21.8343 17.6428C21.8343 19.3608 20.4365 20.7585 18.7182 20.7585H6.27122C4.553 20.7585 3.15512 19.3609 3.15512 17.6428V15.2512H21.8343V17.6428Z" fill="#626262"/>
</g>
<defs>
<clipPath id="clip0_641_21226">
<rect width="24.3294" height="24.3294" fill="white" transform="translate(0.330078 0.853027)"/>
</clipPath>
</defs>
</svg>
