<svg width="25" height="26" viewBox="0 0 25 26" fill="none" xmlns="http://www.w3.org/2000/svg">
<g clip-path="url(#clip0_641_21232)">
<path d="M23.2979 13.0494V12.586C23.2979 11.7324 22.856 10.9806 22.1893 10.5458V5.49134C22.1893 4.16149 21.1074 3.07959 19.7776 3.07959H4.86432C3.53447 3.07959 2.45253 4.16149 2.45253 5.49134V10.5457C1.78585 10.9805 1.34392 11.7324 1.34392 12.586V13.0493C0.661275 13.2291 0.15625 13.8516 0.15625 14.5899V20.0116C0.15625 20.8645 0.830156 21.5629 1.67346 21.6026V22.2442C1.67346 22.6371 1.99198 22.9556 2.38486 22.9556C2.77774 22.9556 3.09626 22.6371 3.09626 22.2442V21.6045H21.5456V22.2442C21.5456 22.6371 21.8641 22.9556 22.257 22.9556C22.6499 22.9556 22.9684 22.6371 22.9684 22.2442V21.6026C23.8118 21.5629 24.4857 20.8645 24.4857 20.0115V14.5899C24.4857 13.8515 23.9806 13.2291 23.2979 13.0494ZM3.87537 5.49134C3.87537 4.94602 4.319 4.50239 4.86432 4.50239H19.7776C20.3229 4.50239 20.7665 4.94602 20.7665 5.49134V10.1513H19.818V8.89741C19.818 8.01974 19.104 7.30569 18.2263 7.30569H14.3983C13.5206 7.30569 12.8065 8.01974 12.8065 8.89741V10.1513H11.8354V8.89741C11.8354 8.01974 11.1213 7.30569 10.2436 7.30569H6.41566C5.53794 7.30569 4.82393 8.01974 4.82393 8.89741V10.1513H3.87537V5.49134ZM18.3951 8.89736V9.9824C18.3951 10.0755 18.3193 10.1513 18.2263 10.1513H14.3983C14.3051 10.1513 14.2294 10.0755 14.2294 9.9824V8.89736C14.2294 8.80422 14.3052 8.72848 14.3983 8.72848H18.2263C18.3194 8.72848 18.3951 8.80422 18.3951 8.89736ZM10.4125 8.89736V9.9824C10.4125 10.0755 10.3367 10.1513 10.2436 10.1513H6.41566C6.32252 10.1513 6.24678 10.0755 6.24678 9.9824V8.89736C6.24678 8.80422 6.32257 8.72848 6.41566 8.72848H10.2436C10.3367 8.72848 10.4125 8.80422 10.4125 8.89736ZM2.76677 12.586C2.76677 12.028 3.22071 11.5741 3.77867 11.5741H20.8632C21.4212 11.5741 21.8751 12.0281 21.8751 12.586V12.9969H2.76677V12.586ZM23.0628 20.0115C23.0628 20.1053 22.9865 20.1816 22.8927 20.1816H1.74921C1.65541 20.1816 1.57905 20.1053 1.57905 20.0115V14.5899C1.57905 14.4961 1.65536 14.4198 1.74921 14.4198H22.8927C22.9865 14.4198 23.0629 14.4961 23.0629 14.5899V20.0115H23.0628Z" fill="#626262"/>
</g>
<defs>
<clipPath id="clip0_641_21232">
<rect width="24.3294" height="24.3294" fill="white" transform="translate(0.15625 0.853027)"/>
</clipPath>
</defs>
</svg>
