<svg width="84" height="83" viewBox="0 0 84 83" fill="none" xmlns="http://www.w3.org/2000/svg">
<path d="M59.1687 48.4243H23.4326C21.6197 48.4243 20.0664 49.9782 20.0664 51.7905C20.0664 53.6034 21.6203 55.1567 23.4326 55.1567H38.4522V80.1452H32.8846C32.1076 80.1452 31.5896 80.7927 31.5896 81.4401C31.5896 82.0876 32.2371 82.7351 32.8846 82.7351H50.7518C51.5288 82.7351 52.0468 82.0876 52.0468 81.4401C52.0468 80.7927 51.3993 80.1452 50.7518 80.1452H44.1488L44.1482 55.1567H59.1678C60.9807 55.1567 62.534 53.6028 62.534 51.7905C62.534 49.9776 60.9807 48.4237 59.1678 48.4237L59.1687 48.4243Z" fill="white"/>
<path d="M38.4551 30.1698H44.1522V45.7072H38.4551V30.1698Z" fill="white"/>
<path d="M29.2623 27.4496H53.3446C53.4741 27.1906 53.4741 26.8021 53.4741 26.4136C52.9561 11.9121 47.518 0.130124 41.3034 0C35.0883 0 29.6507 11.7823 29.1328 26.4136C29.1328 26.8021 29.1328 27.1906 29.2623 27.4496H29.2623Z" fill="white"/>
<path d="M13.5949 27.4496H26.5426C26.5426 27.0611 26.4131 26.6726 26.4131 26.2842C26.8016 15.1494 29.9088 5.82679 34.311 0.90686C22.6582 3.88469 13.5949 13.984 12.5586 26.4143C12.5586 26.8028 12.6881 27.0618 12.8176 27.1913C12.9471 27.3207 13.2061 27.4502 13.5946 27.4502L13.5949 27.4496Z" fill="white"/>
<path d="M56.0618 27.4495H69.0094C69.2684 27.4495 69.5274 27.32 69.7864 27.1905C69.9159 27.061 70.0454 26.802 70.0454 26.4136C69.0094 13.9839 59.946 3.88504 48.293 0.906128C52.6952 5.69686 55.8025 15.0192 56.1909 26.2834C56.1909 26.6719 56.1909 27.0604 56.0614 27.4489L56.0618 27.4495Z" fill="white"/>
<path d="M80.9228 55.1583H67.4571C65.9032 55.1583 64.7383 56.3238 64.7383 57.8771V81.442H69.3995V76.3923H79.1105V81.442H83.7717V57.8771C83.6416 56.4533 82.4768 55.1583 80.9228 55.1583ZM79.1099 73.8033H69.3989V62.539H79.1099V73.8033Z" fill="white"/>
<path d="M16.1845 55.1583H2.71882C1.16492 55.1583 0 56.3238 0 57.8771V81.442H4.66123V76.3923H14.3722V81.442H19.0334V57.8771C18.9033 56.4533 17.609 55.1583 16.1845 55.1583ZM14.2421 73.8033H4.53111V62.539H14.2421V73.8033Z" fill="white"/>
</svg>
