<svg width="74" height="91" viewBox="0 0 74 91" fill="none" xmlns="http://www.w3.org/2000/svg">
<path d="M60.3124 72.9803H13.1847C12.2509 72.9803 11.5195 73.706 11.5195 74.6342V84.4152C19.3139 88.0883 27.5854 90.2207 36.3829 90.2207C45.4077 90.2207 53.956 87.9614 61.9767 84.2318V74.6342C61.9767 73.7216 61.2298 72.9803 60.3115 72.9803H60.3124Z" fill="white"/>
<path d="M52.7461 70.8235H58.3684V59.548C56.575 58.6489 54.6939 57.8078 52.7461 57.007V70.8235Z" fill="white"/>
<path d="M15.1289 70.8236H20.7517V57.0637C18.8579 57.8999 16.9796 58.7742 15.1289 59.7103V70.8236Z" fill="white"/>
<path d="M73.4675 76.9623C72.2122 69.2798 67.1947 64.4188 60.5254 60.6898V70.8452C62.5318 70.9585 64.1333 72.6067 64.1333 74.6344V83.187C67.165 81.6613 70.1208 79.9346 72.9931 78.0405C73.3528 77.7963 73.5397 77.3793 73.4675 76.9623L73.4675 76.9623Z" fill="white"/>
<path d="M12.9717 60.8386C11.8821 61.4284 10.801 62.0366 9.73613 62.6823C4.51605 65.8604 0.979028 71.0656 0.0153407 76.9618C-0.0568751 77.3788 0.130743 77.7816 0.475542 78.0259C3.36479 80.0125 6.32781 81.7945 9.36224 83.3529V74.634C9.36224 72.6057 10.9651 70.9574 12.9723 70.8449L12.9717 60.8386Z" fill="white"/>
<path d="M26.4181 13.3739H47.082C48.5199 13.3739 49.9006 12.8415 50.9788 11.8786L51.4822 11.4326L49.2817 3.42237C49.0516 2.4156 48.4767 1.55335 47.7142 0.948716C46.9382 0.34551 45.9746 0 44.9389 0C43.2567 0 41.8039 1.00677 40.9557 2.44465C40.1075 3.89674 38.54 4.8603 36.7424 4.8603C34.9448 4.8603 33.3774 3.89673 32.5292 2.44465C31.681 1.00672 30.2282 0 28.5459 0H28.5318C26.4608 0 24.6632 1.4089 24.1889 3.42248L22.0176 11.3457L22.5493 11.9064C23.5844 12.8417 24.9798 13.3741 26.4178 13.3741L26.4181 13.3739Z" fill="white"/>
<path d="M26.4188 19.6866H47.0682C48.9231 19.6866 50.7782 19.1974 52.3887 18.2628C52.6762 18.1043 52.9353 17.9322 53.2086 17.7304L52.1154 13.7323C50.7065 14.897 48.9232 15.5299 47.0822 15.5299L26.4183 15.5306C24.5776 15.5306 22.7949 14.8977 21.371 13.7189L20.2637 17.7311C20.537 17.918 20.7961 18.1049 21.0835 18.2635C22.7084 19.1981 24.5633 19.6866 26.4183 19.6866L26.4188 19.6866Z" fill="white"/>
<path d="M13.4471 23.1956C15.1038 24.7036 16.9927 25.8817 19.0226 26.7278C18.9709 26.8538 18.9398 26.9911 18.9398 27.1363V30.5821C17.0048 30.8448 15.5032 32.808 15.5032 35.2173C15.5032 37.6698 17.0409 39.6522 19.0107 39.8759C19.3519 44.2767 21.2558 48.3328 24.4863 51.4119C24.6222 51.5414 24.7688 51.6533 24.9075 51.7779V55.3646C24.4431 55.5409 23.7507 55.8099 22.9089 56.1504V70.8243H50.5907V56.1419C49.9238 55.8807 49.2533 55.6208 48.5772 55.3638V51.7007C51.8134 48.7342 53.9827 44.5683 54.448 39.8785C56.4305 39.6704 57.9816 37.6809 57.9816 35.217C57.9816 32.807 56.4806 30.8445 54.545 30.5818V27.136C54.545 26.9908 54.5145 26.8542 54.4621 26.7275C56.4919 25.8814 58.3808 24.7033 60.0376 23.1953L63.417 20.1326C64.7112 18.939 64.8117 16.9113 63.618 15.6171C63 14.9558 62.1659 14.582 61.2455 14.582C60.4405 14.582 59.678 14.8836 59.0883 15.416L55.709 18.4936C53.3896 20.6196 50.2928 21.8437 47.0664 21.8437H26.4188C23.1961 21.8437 20.0986 20.6217 17.7763 18.4936L14.397 15.416C13.0723 14.2202 11.0573 14.3299 9.88138 15.6171C8.68771 16.9113 8.77407 18.939 10.0683 20.1326L13.4471 23.1956ZM46.4213 56.1118C46.4213 61.4181 42.0784 65.732 36.7436 65.732C31.4088 65.732 27.066 61.4181 27.066 56.1118V53.4518C29.9255 55.3208 33.2461 56.3184 36.721 56.3184C37.0127 56.3184 37.3051 56.3113 37.5989 56.2972C40.8584 56.1456 43.8639 55.0837 46.422 53.3782L46.4213 56.1118ZM47.0684 28.2288C48.8964 28.2288 50.6806 27.9605 52.3889 27.467V37.9779C52.3889 46.6543 45.8484 53.7556 37.4969 54.1429C28.8212 54.533 21.0978 47.6704 21.0978 38.4524V27.4665C22.8069 27.96 24.5909 28.2283 26.4183 28.2283L47.0684 28.2288Z" fill="white"/>
<path d="M28.9083 35.8575H31.2221C31.8176 35.8575 32.3004 35.3746 32.3004 34.7792C32.3004 34.1838 31.8176 33.7009 31.2221 33.7009H28.9083C28.3129 33.7009 27.8301 34.1838 27.8301 34.7792C27.8294 35.3746 28.3129 35.8575 28.9083 35.8575Z" fill="white"/>
<path d="M42.2658 35.8575H44.5796C45.175 35.8575 45.6578 35.3746 45.6578 34.7792C45.6578 34.1838 45.175 33.7009 44.5796 33.7009H42.2658C41.6703 33.7009 41.1875 34.1838 41.1875 34.7792C41.1868 35.3746 41.6704 35.8575 42.2658 35.8575Z" fill="white"/>
<path d="M36.7438 43.1091C37.5304 43.1091 38.3162 42.8656 38.9867 42.3778C39.4681 42.0273 39.5743 41.3526 39.2239 40.8712C38.8727 40.3883 38.1973 40.2821 37.7173 40.634C37.1353 41.0574 36.3523 41.0559 35.7718 40.634C35.2904 40.2821 34.6149 40.3883 34.2652 40.8712C33.9147 41.3526 34.0209 42.0273 34.5023 42.3778C35.1721 42.8656 35.958 43.1091 36.7438 43.1091H36.7438Z" fill="white"/>
<path d="M31.7913 46.2864C31.2801 46.5922 31.113 47.2549 31.4181 47.7661C32.163 49.0115 33.3999 49.7557 34.7266 49.7557H38.7635C40.0903 49.7557 41.3272 49.0123 42.072 47.7661C42.3771 47.2549 42.21 46.593 41.6989 46.2864C41.1884 45.9834 40.5257 46.1483 40.2192 46.6595C39.863 47.2564 39.332 47.5983 38.7628 47.5983H34.7259C34.1567 47.5983 33.6257 47.2564 33.2696 46.6595C32.9651 46.1476 32.3032 45.982 31.7913 46.2864H31.7913Z" fill="white"/>
</svg>
