<svg width="76" height="76" viewBox="0 0 76 76" fill="none" xmlns="http://www.w3.org/2000/svg">
<path d="M18.5422 54.0646C18.557 54.0126 18.5745 53.9605 18.5745 53.9033V52.1491C18.5745 50.7548 17.4348 49.6202 16.0337 49.6202L4.77205 49.6208C4.74771 49.6208 4.72565 49.6327 4.70188 49.6361L2.36199 30.1631C2.29069 29.5666 1.77743 29.1252 1.181 29.1252C0.524576 29.1252 0 29.6504 0 30.3062V73.9705C0 74.6269 0.525141 75.1515 1.181 75.1515H1.22853C1.8131 75.1515 2.30202 74.7339 2.39765 74.1612L5.21356 57.5667H13.9463L16.7622 74.1612C16.8578 74.7339 17.3467 75.1515 17.9313 75.1515H17.9788C18.6353 75.1515 19.1598 74.6263 19.1598 73.9705V55.0857C19.1598 54.6381 18.9057 54.2663 18.5425 54.0654L18.5422 54.0646ZM17.3816 53.9209H5.14546L4.84724 50.8142H16.0337C16.7773 50.8142 17.3816 51.4135 17.3816 52.1497L17.3816 53.9209Z" fill="white"/>
<path d="M50.6275 72.5236C48.1817 72.2967 46.3444 70.2811 46.3444 67.8353C46.3444 64.2561 43.8155 61.262 40.3675 60.6175V52.0035H34.1756V60.6175C30.7276 61.2739 28.1987 64.2679 28.1987 67.8353C28.1987 70.2811 26.3612 72.2973 23.928 72.5236C23.2003 72.583 22.6752 73.2276 22.7351 73.9434C22.8064 74.6236 23.3791 75.1363 24.0474 75.1363H24.1668C27.9606 74.7787 30.8239 71.6408 30.8239 67.8353C30.8239 65.7116 32.2075 63.9103 34.1762 63.3258H40.3681C42.325 63.8984 43.7205 65.7116 43.7205 67.8353C43.7205 71.641 46.5839 74.7788 50.3775 75.1363H50.5088C51.1771 75.1363 51.7498 74.623 51.8092 73.9434C51.8805 73.2276 51.3435 72.5836 50.6277 72.5236H50.6275Z" fill="white"/>
<path d="M17.2 42.5347H33.0079V50.8141H41.5499V42.5347H57.3462C58.4559 42.5347 59.3624 41.64 59.3624 40.5303C59.3624 39.4206 58.4559 38.514 57.3462 38.514H52.3234L52.3239 33.7498C54.6027 33.249 56.0938 29.7292 56.0938 24.6951C56.0938 24.3731 55.8312 24.0986 55.4974 24.0986H47.9456C47.6117 24.0986 47.3492 24.3731 47.3492 24.6951C47.3492 29.7298 48.8403 33.249 51.1309 33.7498V38.514H23.4411V33.7498C25.7199 33.2366 27.211 29.7292 27.211 24.6951C27.211 24.3731 26.9484 24.0986 26.6145 24.0986H19.0509C18.7289 24.0986 18.4544 24.3731 18.4544 24.6951C18.4544 29.7298 19.9574 33.249 22.2482 33.7498V38.514H17.2016C16.0919 38.514 15.1973 39.4206 15.1973 40.5303C15.1978 41.6394 16.0925 42.5347 17.2016 42.5347H17.2Z" fill="white"/>
<path d="M39.2715 8.62521V0H35.2865V8.62521C32.1249 9.56798 29.8223 12.6934 29.8223 15.8668H44.7348C44.7348 12.7052 42.4209 9.57988 39.2712 8.62521H39.2715Z" fill="white"/>
<path d="M37.278 20.8771C39.1432 20.8771 40.6557 19.1744 40.6557 17.0625H33.8945C33.8945 19.1744 35.4071 20.8771 37.2779 20.8771H37.278Z" fill="white"/>
<path d="M73.9786 29.1258C73.3822 29.1258 72.8689 29.5672 72.7976 30.1636L70.4577 49.6366C70.434 49.6338 70.4119 49.6213 70.3876 49.6213H59.1259C57.7242 49.6213 56.5851 50.7554 56.5851 52.1503V53.9045C56.5851 53.9616 56.6027 54.0131 56.6174 54.0657C56.2541 54.2661 56 54.6384 56 55.086V73.9709C56 74.6273 56.5251 75.1518 57.181 75.1518H57.2285C57.8131 75.1518 58.302 74.7342 58.3976 74.1615L61.2136 57.5671H69.9463L72.7622 74.1615C72.8578 74.7342 73.3467 75.1518 73.9313 75.1518H73.9788C74.6353 75.1518 75.1598 74.6267 75.1598 73.9709V30.3066C75.1598 29.6502 74.6353 29.1256 73.9788 29.1256L73.9786 29.1258ZM70.0141 53.9212H57.7779V52.1505C57.7779 51.4143 58.3828 50.815 59.1258 50.815H70.3123L70.0141 53.9212Z" fill="white"/>
</svg>
