<svg width="75" height="59" viewBox="0 0 75 59" fill="none" xmlns="http://www.w3.org/2000/svg">
<path d="M32.0258 46.2526C31.0063 47.2767 30.3127 48.5799 30.0329 49.998C29.7532 51.4161 29.8995 52.8855 30.454 54.2203C31.0074 55.5551 31.9448 56.6957 33.1462 57.4984C34.3476 58.3007 35.7595 58.7291 37.2035 58.7291C38.648 58.7291 40.0605 58.3007 41.2613 57.4984C42.4627 56.6956 43.3995 55.5551 43.954 54.2203C44.508 52.8855 44.6544 51.4162 44.3746 49.998C44.0948 48.5799 43.4012 47.2766 42.3817 46.2526C41.705 45.5664 40.8988 45.022 40.0099 44.6504C39.121 44.2783 38.1673 44.0869 37.2035 44.0869C36.2402 44.0869 35.2865 44.2783 34.3976 44.6504C33.5087 45.022 32.7025 45.5664 32.0258 46.2526H32.0258Z" fill="white"/>
<path d="M37.2028 28.8905C34.236 28.8804 31.2968 29.458 28.5545 30.5901C25.8117 31.7223 23.3206 33.3869 21.2241 35.4873C20.4236 36.2918 19.9749 37.3812 19.9766 38.5167C19.9788 39.6522 20.4314 40.7405 21.2354 41.5415C22.0387 42.3432 23.1275 42.7919 24.2625 42.7902C25.3968 42.7879 26.4839 42.3347 27.2851 41.5302C29.9182 38.9086 33.4811 37.4364 37.1956 37.4364C40.91 37.4364 44.4737 38.9086 47.1062 41.5302C47.5031 41.9294 47.9743 42.2469 48.4933 42.4637C49.0118 42.681 49.5686 42.7936 50.1309 42.7952C50.6933 42.7964 51.2507 42.6877 51.7709 42.4738C52.2911 42.2599 52.764 41.9457 53.1631 41.5488C53.5623 41.1519 53.8792 40.6802 54.096 40.1611C54.3127 39.6415 54.4253 39.0847 54.427 38.5217C54.4281 37.9588 54.3195 37.4014 54.1055 36.8807C53.8922 36.3599 53.578 35.8865 53.1817 35.4873C51.0852 33.3869 48.5935 31.7222 45.8513 30.5901C43.1086 29.458 40.1693 28.8804 37.203 28.8905L37.2028 28.8905Z" fill="white"/>
<path d="M37.2029 14.8215C32.3856 14.8086 27.6133 15.7493 23.1607 17.5885C18.7082 19.4277 14.6627 22.13 11.2573 25.5398C10.861 25.9379 10.5463 26.4108 10.3324 26.9304C10.1184 27.45 10.0087 28.0068 10.0098 28.5692C10.0109 29.1315 10.1224 29.6878 10.3385 30.2068C10.5542 30.7258 10.8705 31.197 11.2686 31.5939C11.666 31.9908 12.1384 32.305 12.658 32.5195C13.177 32.7334 13.7338 32.8432 14.2956 32.842C14.8574 32.8409 15.4131 32.7294 15.9316 32.5133C16.4507 32.2971 16.9219 31.9813 17.3182 31.5827C22.6028 26.3212 29.7542 23.3679 37.2096 23.3679C44.6645 23.3679 51.8162 26.3212 57.1011 31.5827C57.9022 32.3855 58.9887 32.837 60.1219 32.8375C60.6832 32.8381 61.2389 32.7278 61.7574 32.5133C62.2765 32.2988 62.7477 31.9841 63.1446 31.5878C63.542 31.1909 63.8567 30.7197 64.0723 30.2006C64.2874 29.6821 64.3983 29.1265 64.3989 28.5646C64.3989 28.0027 64.2891 27.4471 64.0746 26.9281C63.8607 26.409 63.546 25.9372 63.1491 25.5398C59.7448 22.1293 55.6994 19.4265 51.2468 17.5867C46.7938 15.7469 42.0214 14.8073 37.2041 14.8213L37.2029 14.8215Z" fill="white"/>
<path d="M73.1555 15.5695C63.5547 5.99114 50.7867 0.720825 37.2005 0.720825C23.6155 0.720825 10.8497 5.99129 1.24698 15.5695C0.446434 16.374 -0.00225416 17.4634 8.51645e-06 18.5989C0.00226039 19.7338 0.454879 20.8221 1.25881 21.6231C2.06216 22.4242 3.15153 22.8729 4.2859 22.8706C5.42028 22.8684 6.50679 22.4152 7.30737 21.6113C15.2497 13.7038 25.9968 9.26538 37.2007 9.26538C48.4046 9.26538 59.1501 13.7038 67.0926 21.6113C67.8931 22.4157 68.9802 22.8689 70.1146 22.8712C71.2496 22.8734 72.3384 22.4247 73.1423 21.6237C73.9462 20.8225 74.3994 19.735 74.4016 18.5994C74.4039 17.4639 73.9558 16.3741 73.1547 15.5696L73.1555 15.5695Z" fill="white"/>
</svg>
