<svg width="63" height="81" viewBox="0 0 63 81" fill="none" xmlns="http://www.w3.org/2000/svg">
<path d="M4.62356 0C4.14131 0 3.67827 0.193417 3.33754 0.537967C2.99619 0.881894 2.80469 1.34941 2.80469 1.83616V15.94C2.80469 16.4274 2.99619 16.8943 3.33754 17.2388C3.67825 17.5828 4.14129 17.7762 4.62356 17.7762H57.812H57.8113C58.2936 17.7762 58.7566 17.5827 59.0974 17.2388C59.4387 16.8943 59.6302 16.4274 59.6302 15.94V1.83616C59.6302 1.34941 59.4387 0.881894 59.0974 0.537967C58.7566 0.193401 58.2936 0 57.8113 0H4.62292H4.62356Z" fill="white"/>
<path d="M4.62368 18.5298C4.14142 18.5298 3.67838 18.7232 3.33765 19.0678C2.9963 19.4123 2.8048 19.8792 2.8048 20.3666V20.0758L0.0911924 28.4882C-0.0887802 29.0466 0.00665378 29.6589 0.348649 30.1347C0.690002 30.6106 1.23632 30.8924 1.81847 30.893L60.6108 30.9827C61.1924 30.9827 61.7387 30.7028 62.0813 30.2282C62.424 29.7537 62.5213 29.142 62.3433 28.583L59.5419 19.8031C59.2998 19.0448 58.6005 18.5298 57.8107 18.5298H4.62233L4.62368 18.5298Z" fill="white"/>
<path d="M8.15417 35.4498C7.67192 35.4498 7.20952 35.6432 6.86815 35.9878C6.52744 36.3324 6.33594 36.7992 6.33594 37.286V42.585C6.33594 43.0724 6.52744 43.5393 6.86815 43.8838C7.2095 44.2284 7.6719 44.4218 8.15417 44.4218H17.6757C18.1579 44.4218 18.6203 44.2284 18.9617 43.8838C19.3024 43.5393 19.4945 43.0724 19.4945 42.585V37.286C19.4939 36.7992 19.3024 36.3324 18.9617 35.9878C18.6203 35.6432 18.1579 35.4498 17.6757 35.4498H8.15417Z" fill="white"/>
<path d="M54.2708 40.7259L46.5784 40.7509H46.579C46.0865 40.7355 45.6088 40.9225 45.2559 41.2697C44.9024 41.6161 44.7038 42.0933 44.7051 42.5909C44.7057 43.0885 44.9068 43.5644 45.2623 43.9089C45.6171 44.2542 46.0955 44.4392 46.588 44.4213L54.2817 44.3982C54.7678 44.4027 55.2353 44.2106 55.5805 43.8648C55.9251 43.5189 56.1185 43.0475 56.1172 42.557C56.1153 42.0657 55.9193 41.5956 55.5728 41.2517C55.2257 40.9078 54.7569 40.7182 54.2708 40.7259L54.2708 40.7259Z" fill="white"/>
<path d="M1.84065 44.8084C1.35456 44.802 0.886387 44.9928 0.540542 45.338C0.194697 45.6826 0 46.1533 0 46.6446C0 47.1358 0.194697 47.6059 0.540542 47.9511C0.886387 48.2963 1.35454 48.4871 1.84065 48.4807H60.592C61.0781 48.4871 61.5463 48.2963 61.8921 47.9511C62.238 47.6059 62.4327 47.1358 62.4327 46.6446C62.4327 46.1533 62.238 45.6826 61.8921 45.338C61.5463 44.9928 61.0781 44.802 60.592 44.8084H1.84065Z" fill="white"/>
<path d="M1.86513 49.4073C0.860907 49.4073 0.046875 50.229 0.046875 51.2435V78.9599C0.046875 79.9738 0.860875 80.7961 1.86513 80.7961H60.5673C61.5715 80.7961 62.3856 79.9737 62.3856 78.9599V51.2435C62.3856 50.229 61.5716 49.4073 60.5673 49.4073H1.86513ZM35.7069 55.3827H54.3862V55.382C54.8685 55.3814 55.3315 55.5748 55.6729 55.9193C56.0143 56.2639 56.2058 56.7314 56.2064 57.2182V70.7828C56.2058 71.2702 56.0143 71.737 55.6729 72.0816C55.3316 72.4262 54.8685 72.6196 54.3862 72.6189H35.7069C34.7027 72.6189 33.8887 71.7966 33.8887 70.7828V57.2182C33.8887 56.2044 34.7027 55.3821 35.7069 55.3821V55.3827ZM8.0462 57.5833H26.7255V57.5826C27.7297 57.5826 28.5438 58.4049 28.5438 59.4187V72.9846C28.5438 73.9991 27.7298 74.8208 26.7255 74.8208H8.0462C7.56331 74.8214 7.10027 74.628 6.7589 74.2834C6.41755 73.9395 6.22605 73.472 6.22605 72.9846V59.4187C6.22605 58.9313 6.41755 58.4638 6.7589 58.1199C7.10025 57.7753 7.56329 57.5819 8.0462 57.5825V57.5833Z" fill="white"/>
<path d="M37.5273 59.056H52.5688V68.9477H37.5273V59.056Z" fill="white"/>
<path d="M9.86523 61.2546H24.9067V71.1483H9.86523V61.2546Z" fill="white"/>
</svg>
