<svg width="25" height="26" viewBox="0 0 25 26" fill="none" xmlns="http://www.w3.org/2000/svg">
<g clip-path="url(#clip0_641_21236)">
<path d="M3.2154 11.8793C3.31799 11.894 3.42039 11.9012 3.52222 11.9012C3.76509 11.9012 4.00387 11.8595 4.23039 11.7792V19.6228C4.23039 20.0164 4.54952 20.3356 4.94316 20.3356H20.149C20.5427 20.3356 20.8618 20.0164 20.8618 19.6228V11.7791C21.0882 11.8592 21.3276 11.9009 21.5735 11.9009C22.2438 11.9009 22.8837 11.5811 23.2852 11.0455C23.6279 10.5886 23.7722 10.0256 23.6914 9.46008C23.6107 8.89456 23.3144 8.39438 22.8575 8.05173L20.8618 6.5549V1.5658C20.8618 1.17216 20.5427 0.853027 20.149 0.853027H17.2979C16.9043 0.853027 16.5852 1.17216 16.5852 1.5658V3.34736L13.8287 1.28003C13.0735 0.714369 12.0187 0.714369 11.2632 1.28027L2.23476 8.05163C1.77777 8.39434 1.48154 8.89452 1.40081 9.46003C1.32003 10.0255 1.4643 10.5886 1.8069 11.0453C2.14956 11.5024 2.64978 11.7986 3.2154 11.8793ZM5.65594 18.91V10.8318L12.5461 5.66407L19.4363 10.8318V18.91H5.65594ZM18.0107 2.27858H19.4363V5.48574L18.0107 4.41657V2.27858ZM2.81206 9.6616C2.83895 9.47305 2.93775 9.30631 3.09009 9.19207L12.1182 2.42099C12.2442 2.32657 12.3952 2.27943 12.5462 2.27943C12.6971 2.27943 12.8479 2.32657 12.9737 2.42075L22.0022 9.19212C22.1545 9.30636 22.2533 9.4731 22.2802 9.6616C22.3071 9.85011 22.2591 10.0378 22.1447 10.1902C22.0089 10.3714 21.8006 10.4753 21.5735 10.4753C21.4188 10.4753 21.2713 10.426 21.147 10.3329L12.9738 4.20284C12.7203 4.01276 12.3719 4.01276 12.1184 4.20284L3.94528 10.3328C3.79303 10.447 3.60519 10.4949 3.41687 10.4681C3.22837 10.4412 3.06167 10.3425 2.94739 10.19C2.8332 10.0378 2.78512 9.85011 2.81206 9.6616Z" fill="#626262"/>
<path d="M24.5015 22.0651L22.6008 20.1644C22.3224 19.886 21.8711 19.886 21.5928 20.1644C21.3144 20.4427 21.3144 20.894 21.5928 21.1724L22.2767 21.8563H2.81439L3.49837 21.1723C3.77674 20.894 3.77674 20.4427 3.49837 20.1643C3.22006 19.886 2.76873 19.886 2.49037 20.1643L0.589631 22.0651C0.311269 22.3434 0.311269 22.7947 0.589631 23.0731L2.49037 24.9738C2.62955 25.1131 2.81192 25.1826 2.99435 25.1826C3.17677 25.1826 3.35919 25.1131 3.49833 24.9738C3.77669 24.6955 3.77669 24.2442 3.49833 23.9658L2.81439 23.2819H22.2767L21.5927 23.9659C21.3143 24.2442 21.3143 24.6955 21.5927 24.9739C21.7319 25.1131 21.9143 25.1826 22.0967 25.1826C22.2792 25.1826 22.4616 25.1131 22.6007 24.9738L24.5015 23.0731C24.7799 22.7948 24.7799 22.3435 24.5015 22.0651Z" fill="#626262"/>
<path d="M16.8227 10.832H8.26942C7.87577 10.832 7.55664 11.1512 7.55664 11.5448V15.8215C7.55664 16.2151 7.87577 16.5342 8.26942 16.5342H16.8227C17.2164 16.5342 17.5355 16.2151 17.5355 15.8215V11.5448C17.5355 11.1512 17.2164 10.832 16.8227 10.832ZM8.98219 12.2576H11.8333V15.1087H8.98219V12.2576ZM16.1099 15.1087H13.2588V12.2576H16.1099V15.1087Z" fill="#626262"/>
</g>
<defs>
<clipPath id="clip0_641_21236">
<rect width="24.3294" height="24.3294" fill="white" transform="translate(0.380859 0.853027)"/>
</clipPath>
</defs>
</svg>
